<svg width="24" height="24" viewBox="0 0 24 24" fill="none" xmlns="http://www.w3.org/2000/svg">
<path fill-rule="evenodd" clip-rule="evenodd" d="M10.2927 6.58214C9.7822 6.07163 8.8897 5.55839 7.24303 5.97016C5.59071 6.38334 4.37176 7.61443 3.96688 9.13234C3.5695 10.6221 3.92906 12.5137 5.70848 14.2929L11.296 19.8796C11.6867 20.2702 12.3175 20.2701 12.7081 19.8792C13.9629 18.6236 15.9567 16.6287 18.2926 14.2929C20.0711 12.5144 20.4308 10.6227 20.0335 9.13266C19.6288 7.61459 18.4101 6.38334 16.7574 5.97017C15.1102 5.55835 14.2176 6.07168 13.7071 6.58214C13.4279 6.86136 13.2357 7.17093 13.1131 7.416C13.0527 7.53685 13.0117 7.63709 12.9871 7.70273C12.9748 7.73539 12.9668 7.759 12.9627 7.77172L12.9594 7.7818C12.8345 8.20727 12.444 8.5 12 8.50003C11.556 8.50006 11.1655 8.20738 11.0405 7.78194L11.0373 7.77183C11.0331 7.7591 11.0251 7.73549 11.0129 7.70283C10.9882 7.63718 10.9472 7.53693 10.8868 7.41607C10.7642 7.17098 10.572 6.86138 10.2927 6.58214ZM11.9999 5.48814C12.0897 5.38095 12.1872 5.27362 12.2929 5.16792C13.2824 4.17837 14.8898 3.44171 17.2425 4.02989C19.5898 4.61672 21.3709 6.38547 21.966 8.6174C22.5686 10.8774 21.9282 13.4857 19.7068 15.7071C17.3711 18.0428 15.3774 20.0374 14.1227 21.2929C12.9513 22.4651 11.0539 22.4657 9.88194 21.2939L4.29438 15.7072C2.07206 13.4852 1.43162 10.8769 2.03444 8.61689C2.62975 6.38507 4.41118 4.61672 6.75785 4.0299C9.11017 3.44167 10.7174 4.17843 11.7069 5.16792C11.8126 5.27362 11.9101 5.38095 11.9999 5.48814Z" fill="#252831"/>
</svg>
