<svg width="40" height="40" viewBox="0 0 40 40" fill="none" xmlns="http://www.w3.org/2000/svg">
<path d="M24.9768 19.4436C26.0587 18.8563 26.7388 17.8053 26.7388 16.4142C26.7388 14.2813 25.0386 12.8593 21.7002 12.8593V10.4482H19.3199V12.8593H17.5271V10.4482H15.1468V12.8593H13.0139V15.2705H15.1777V24.1422H13.0139V26.5842H15.1468V28.9644H17.5271V26.5842H19.3199V28.9644H21.7002V26.5842H22.0711C25.5951 26.5842 27.4189 25.2241 27.4189 22.8439C27.4189 21.1128 26.4915 19.9382 24.9768 19.4436ZM17.4652 15.3014H18.0526V15.2705H21.3292C22.8439 15.2705 23.6476 15.796 23.6476 16.8779C23.6476 17.9598 22.813 18.5162 21.3292 18.5162H17.4652V15.3014ZM21.8547 24.204H18.0526V24.1731H17.4652V20.8037H21.8547C23.4621 20.8037 24.3277 21.3601 24.3277 22.5039C24.3277 23.6785 23.4621 24.204 21.8547 24.204Z" fill="url(#paint0_linear_120_16937)"/>
<path d="M30.9119 33.5085L30.0464 32.643C27.2952 34.8377 23.8022 36.136 20.0309 36.136C16.2597 36.136 12.7666 34.8377 10.0155 32.643L9.14992 33.5085C12.1175 35.9196 15.9196 37.3725 20.0618 37.3725C24.1113 37.3725 27.9134 35.9196 30.9119 33.5085Z" fill="url(#paint1_linear_120_16937)"/>
<path d="M8.34621 29.0263L9.21175 28.1607C7.51159 25.8733 6.4915 23.0603 6.4915 20.0309C6.4915 12.5811 12.5502 6.52241 20 6.52241C23.0294 6.52241 25.8424 7.5425 28.1298 9.24266L28.9954 8.37713C26.4915 6.46059 23.3694 5.28594 20 5.28594C11.8702 5.28594 5.25502 11.9011 5.25502 20.0309C5.25502 23.4003 6.39876 26.5224 8.34621 29.0263Z" fill="url(#paint2_linear_120_16937)"/>
<path d="M20 0C14.7141 0 9.89181 2.0711 6.30603 5.4405C5.99691 5.7187 5.7187 6.02782 5.4405 6.30603L7.29521 8.16074C4.4204 11.2828 2.62751 15.4559 2.62751 20C2.62751 25.0077 4.76043 29.5209 8.16074 32.7048L10.0155 30.8501C12.643 33.2612 16.136 34.745 20 34.745C28.1298 34.745 34.745 28.1298 34.745 20C34.745 16.136 33.2612 12.643 30.8501 10.0155L32.7048 8.16074C32.4266 7.85162 32.1484 7.57342 31.8393 7.29521C28.7481 4.4204 24.575 2.62751 20.0309 2.62751C15.456 2.62751 11.3138 4.38949 8.22257 7.29521L7.23339 6.30603C10.541 3.15301 15.0541 1.23648 20 1.23648C30.3555 1.23648 38.7635 9.64451 38.7635 20C38.7635 24.9459 36.847 29.459 33.694 32.7975L32.7048 31.8083C35.5796 28.7172 37.3725 24.544 37.3725 20C37.3725 15.8578 35.9196 12.0866 33.5085 9.0881L32.643 9.95363C34.8377 12.7048 36.1669 16.1978 36.1669 19.9691C36.1669 24.6368 34.1886 28.8408 31.0046 31.7774L32.8594 33.6321C29.49 36.7852 25.0077 38.7017 20.0618 38.7017C9.64451 38.7635 1.23648 30.3555 1.23648 20C1.23648 15.4869 2.84389 11.3447 5.50232 8.12983L4.63679 7.2643C1.73107 10.6955 0 15.1468 0 20C0 31.0355 8.96445 40 20 40C25.2859 40 30.1082 37.9289 33.694 34.5595C34.0031 34.2813 34.2813 33.9722 34.5595 33.694C37.9289 30.1082 40 25.2859 40 20C40 8.96445 31.0355 0 20 0ZM20 3.8949C24.2349 3.8949 28.068 5.53323 30.9428 8.19165L29.0881 10.0464C29.3972 10.3246 29.6754 10.6028 29.9536 10.9119C32.1484 13.323 33.5085 16.507 33.5085 20.0309C33.5085 27.4807 27.4498 33.5394 20 33.5394C16.507 33.5394 13.2921 32.1793 10.881 29.9845C10.5719 29.7063 10.2937 29.4281 10.0155 29.119L8.16074 30.9737C5.50232 28.0989 3.86399 24.2349 3.86399 20.0309C3.86399 11.1283 11.0974 3.8949 20 3.8949Z" fill="url(#paint3_linear_120_16937)"/>
<defs>
<linearGradient id="paint0_linear_120_16937" x1="20" y1="0" x2="20" y2="40" gradientUnits="userSpaceOnUse">
<stop stop-color="#FD28A8"/>
<stop offset="0.28125" stop-color="#DF23B7"/>
<stop offset="0.697917" stop-color="#B11CCF"/>
<stop offset="1" stop-color="#8C17E3"/>
</linearGradient>
<linearGradient id="paint1_linear_120_16937" x1="20" y1="0" x2="20" y2="40" gradientUnits="userSpaceOnUse">
<stop stop-color="#FD28A8"/>
<stop offset="0.28125" stop-color="#DF23B7"/>
<stop offset="0.697917" stop-color="#B11CCF"/>
<stop offset="1" stop-color="#8C17E3"/>
</linearGradient>
<linearGradient id="paint2_linear_120_16937" x1="20" y1="0" x2="20" y2="40" gradientUnits="userSpaceOnUse">
<stop stop-color="#FD28A8"/>
<stop offset="0.28125" stop-color="#DF23B7"/>
<stop offset="0.697917" stop-color="#B11CCF"/>
<stop offset="1" stop-color="#8C17E3"/>
</linearGradient>
<linearGradient id="paint3_linear_120_16937" x1="20" y1="0" x2="20" y2="40" gradientUnits="userSpaceOnUse">
<stop stop-color="#FD28A8"/>
<stop offset="0.28125" stop-color="#DF23B7"/>
<stop offset="0.697917" stop-color="#B11CCF"/>
<stop offset="1" stop-color="#8C17E3"/>
</linearGradient>
</defs>
</svg>
