<svg width="12" height="4" viewBox="0 0 12 4" fill="none" xmlns="http://www.w3.org/2000/svg">
<path d="M9.99984 3.33335C9.26346 3.33335 8.6665 2.7364 8.6665 2.00002C8.6665 1.26364 9.26346 0.666687 9.99984 0.666687C10.7362 0.666687 11.3332 1.26364 11.3332 2.00002C11.3332 2.7364 10.7362 3.33335 9.99984 3.33335Z" fill="#040921"/>
<path d="M5.99984 3.33335C5.26346 3.33335 4.6665 2.7364 4.6665 2.00002C4.6665 1.26364 5.26346 0.666687 5.99984 0.666687C6.73622 0.666687 7.33317 1.26364 7.33317 2.00002C7.33317 2.7364 6.73622 3.33335 5.99984 3.33335Z" fill="#040921"/>
<path d="M1.99984 3.33335C1.26346 3.33335 0.666504 2.7364 0.666504 2.00002C0.666504 1.26364 1.26346 0.666687 1.99984 0.666687C2.73622 0.666687 3.33317 1.26364 3.33317 2.00002C3.33317 2.7364 2.73622 3.33335 1.99984 3.33335Z" fill="#040921"/>
</svg>
